<?xml version="1.0" encoding="UTF-8"?>
<svg xmlns="http://www.w3.org/2000/svg" viewBox="60.0 16.6 1112.8 244.0">
  <!-- Sheep -->
  <g transform="translate(60 30) scale(1.2)">
    <g fill="#1a2a3a">
      <circle cx="70" cy="80" r="26"/>
      <circle cx="95" cy="62" r="24"/>
      <circle cx="122" cy="62" r="24"/>
      <circle cx="146" cy="80" r="22"/>
      <circle cx="135" cy="100" r="24"/>
      <circle cx="108" cy="108" r="26"/>
      <circle cx="80" cy="104" r="22"/>
    </g>
    <ellipse cx="48" cy="88" rx="22" ry="20" fill="#c47a4a"/>
    <ellipse cx="42" cy="70" rx="6" ry="9" fill="#c47a4a" transform="rotate(-25 42 70)"/>
    <circle cx="40" cy="86" r="2.4" fill="#f8f7f5"/>
    <path d="M98 86 L107 95 L124 76" fill="none" stroke="#c47a4a" stroke-width="3.4" stroke-linecap="round" stroke-linejoin="round"/>
    <rect x="78" y="125" width="6" height="18" rx="2" fill="#1a2a3a"/>
    <rect x="132" y="125" width="6" height="18" rx="2" fill="#1a2a3a"/>
  </g>
  <!-- Wordmark "ApplyOS" as vector paths (Playfair Display Bold) -->
  <g transform="translate(334.00 184.60)">
    <path transform="translate(0.00 0) scale(0.20000 -0.20000)" d="M368 710 611 84Q625 48 642.5 34.5Q660 21 674 20V0Q644 2 603.5 2.5Q563 3 522 3Q476 3 435.0 2.5Q394 2 370 0V20Q421 22 434.5 37.5Q448 53 428 104L368 268H150L124 199Q102 144 97.5 109.0Q93 74 102.5 55.0Q112 36 133.5 28.5Q155 21 185 20V0Q152 2 122.0 2.5Q92 3 61 3Q39 3 19.5 2.5Q0 2 -15 0V20Q6 24 28.0 47.0Q50 70 71 125L299 710Q315 709 333.5 709.0Q352 709 368 710ZM361 288 262 558 158 288Z" fill="#1a2a3a"/>
    <path transform="translate(133.40 0) scale(0.20000 -0.20000)" d="M228 528V436Q246 478 282 502Q325 531 383 531Q434 531 474.0 503.5Q514 476 538.0 420.5Q562 365 562 282Q562 209 545.5 154.0Q529 99 498.5 61.5Q468 24 425.5 5.0Q383 -14 330 -14Q291 -14 259 0Q241 7 228 18V-82Q228 -129 252.0 -144.5Q276 -160 318 -160V-181Q292 -180 246.5 -178.5Q201 -177 150 -177Q113 -177 77.5 -178.5Q42 -180 24 -181V-160Q57 -160 70.5 -146.0Q84 -132 84 -92V408Q84 453 70.0 474.5Q56 496 20 496V517Q52 514 82 514Q123 514 160.0 517.5Q197 521 228 528ZM228 402V39Q236 30 249 23Q267 13 291 13Q336 13 362.0 43.5Q388 74 399.5 129.5Q411 185 411 262Q411 348 400.0 397.0Q389 446 370.0 467.0Q351 488 324 488Q288 488 259 460Q235 438 228 402Z" fill="#1a2a3a"/>
    <path transform="translate(253.40 0) scale(0.20000 -0.20000)" d="M228 528V436Q246 478 282 502Q325 531 383 531Q434 531 474.0 503.5Q514 476 538.0 420.5Q562 365 562 282Q562 209 545.5 154.0Q529 99 498.5 61.5Q468 24 425.5 5.0Q383 -14 330 -14Q291 -14 259 0Q241 7 228 18V-82Q228 -129 252.0 -144.5Q276 -160 318 -160V-181Q292 -180 246.5 -178.5Q201 -177 150 -177Q113 -177 77.5 -178.5Q42 -180 24 -181V-160Q57 -160 70.5 -146.0Q84 -132 84 -92V408Q84 453 70.0 474.5Q56 496 20 496V517Q52 514 82 514Q123 514 160.0 517.5Q197 521 228 528ZM228 402V39Q236 30 249 23Q267 13 291 13Q336 13 362.0 43.5Q388 74 399.5 129.5Q411 185 411 262Q411 348 400.0 397.0Q389 446 370.0 467.0Q351 488 324 488Q288 488 259 460Q235 438 228 402Z" fill="#1a2a3a"/>
    <path transform="translate(373.40 0) scale(0.20000 -0.20000)" d="M228 783V93Q228 51 242.5 36.0Q257 21 292 21V0Q273 1 235.0 2.5Q197 4 158 4Q119 4 79.5 2.5Q40 1 20 0V21Q55 21 69.5 36.0Q84 51 84 93V663Q84 708 70.5 729.5Q57 751 20 751V772Q52 769 82 769Q123 769 160.0 772.5Q197 776 228 783Z" fill="#1a2a3a"/>
    <path transform="translate(435.60 0) scale(0.20000 -0.20000)" d="M513 517V497Q494 492 477.0 473.5Q460 455 444 411L303 15L265 -92Q255 -117 244.5 -134.5Q234 -152 221 -163Q207 -175 185.0 -181.5Q163 -188 134 -188Q110 -188 84.5 -180.0Q59 -172 42.0 -154.0Q25 -136 25 -108Q25 -77 47.0 -58.5Q69 -40 105 -40Q138 -40 159.0 -56.0Q180 -72 180 -103Q180 -123 167.5 -141.0Q155 -159 130 -168Q135 -169 142 -169H153Q183 -169 206.0 -150.0Q229 -131 244 -90L260 -42L48 440Q31 479 14.5 487.5Q-2 496 -14 496V517Q19 514 54.5 512.5Q90 511 123 511Q164 511 198.0 513.0Q232 515 262 517V496Q242 496 224.5 493.5Q207 491 200.5 479.5Q194 468 206 440L328 145L397 337Q416 391 413.0 425.5Q410 460 391.0 477.5Q372 495 339 497V517Q355 516 372 516L406 515Q423 514 436 514Q456 514 478.0 515.0Q500 516 513 517Z" fill="#1a2a3a"/>
    <path transform="translate(539.40 0) scale(0.20000 -0.20000)" d="M397 722Q503 722 582.5 679.0Q662 636 706.0 555.5Q750 475 750 360Q750 248 705.0 164.0Q660 80 579.5 33.0Q499 -14 396 -14Q290 -14 210.5 29.0Q131 72 87.0 153.0Q43 234 43 348Q43 460 88.5 544.0Q134 628 213.5 675.0Q293 722 397 722ZM393 704Q337 704 295.5 659.0Q254 614 231.5 535.0Q209 456 209 352Q209 246 234.5 167.5Q260 89 303.5 46.5Q347 4 400 4Q456 4 497.5 49.0Q539 94 561.5 173.5Q584 253 584 356Q584 463 558.5 541.0Q533 619 489.5 661.5Q446 704 393 704Z" fill="#c47a4a"/>
    <path transform="translate(698.00 0) scale(0.20000 -0.20000)" d="M284 721Q343 721 375.0 708.5Q407 696 430 682Q442 675 449.5 671.5Q457 668 464 668Q474 668 478.5 679.0Q483 690 486 712H509Q508 693 506.5 666.5Q505 640 504.5 597.0Q504 554 504 484H481Q477 536 457.0 585.0Q437 634 400.5 665.5Q364 697 311 697Q263 697 232.0 670.0Q201 643 201 595Q201 555 221.0 526.5Q241 498 279.5 471.0Q318 444 373 406Q421 375 459.0 344.0Q497 313 520.0 274.0Q543 235 543 181Q543 115 508.5 72.0Q474 29 418.0 7.5Q362 -14 295 -14Q233 -14 196.0 -2.0Q159 10 134 23Q112 37 100 37Q90 37 85.5 26.0Q81 15 78 -7H55Q57 17 57.5 49.0Q58 81 58.5 132.5Q59 184 59 263H82Q86 197 104.5 139.5Q123 82 161.5 47.0Q200 12 264 12Q299 12 326.5 24.5Q354 37 371.0 62.0Q388 87 388 124Q388 166 368.5 197.0Q349 228 315.5 255.0Q282 282 238 310Q191 341 150.0 372.0Q109 403 84.5 443.0Q60 483 60 538Q60 601 91.5 641.5Q123 682 174.5 701.5Q226 721 284 721Z" fill="#c47a4a"/>
  </g>
</svg>
